<?xml version="1.0" encoding="utf-8"?>
<!-- Generator: Adobe Illustrator 21.0.2, SVG Export Plug-In . SVG Version: 6.00 Build 0)  -->
<svg version="1.1" id="Layer_1" xmlns="http://www.w3.org/2000/svg" xmlns:xlink="http://www.w3.org/1999/xlink" x="0px" y="0px"
	 viewBox="0 0 111.4 63.8" style="enable-background:new 0 0 111.4 63.8;" xml:space="preserve">
<style type="text/css">
	.st0{fill:#F0EFEF;}
	.st1{fill:url(#SVGID_1_);}
	.st2{fill:#E6E7E8;}
	.st3{fill:#FFFFFF;}
	.st4{fill:url(#SVGID_2_);stroke:#E6E7E8;stroke-width:3;stroke-miterlimit:10;}
	.st5{fill:url(#SVGID_3_);stroke:#E6E7E8;stroke-width:3;stroke-miterlimit:10;}
	.st6{fill:url(#SVGID_4_);stroke:#E6E7E8;stroke-width:3;stroke-miterlimit:10;}
	.st7{fill:url(#SVGID_5_);stroke:#E6E7E8;stroke-width:3;stroke-miterlimit:10;}
	.st8{fill:url(#SVGID_6_);stroke:#E6E7E8;stroke-width:3;stroke-miterlimit:10;}
	.st9{fill:url(#SVGID_7_);stroke:#E6E7E8;stroke-width:3;stroke-miterlimit:10;}
	.st10{fill:url(#SVGID_8_);}
	.st11{fill:url(#SVGID_9_);}
	.st12{fill:url(#SVGID_10_);}
	.st13{fill:url(#SVGID_11_);}
	.st14{fill:url(#SVGID_12_);}
	.st15{fill:url(#SVGID_13_);}
</style>
<path class="st0" d="M70,63.8l-50.8-8.1l2.7-19.5l-5.7-0.5l-6.4-5.1c0,0,40.7-8.1,65.8-6.8l4.6,6.3c0,0-28.5-1.3-49.3,4.8v14.9
	L70,57V63.8z"/>
<g>
	
		<linearGradient id="SVGID_1_" gradientUnits="userSpaceOnUse" x1="3.0167" y1="895.133" x2="68.8999" y2="895.133" gradientTransform="matrix(1 0 0 1 0 -866.583)">
		<stop  offset="0" style="stop-color:#253B79"/>
		<stop  offset="4.716355e-02" style="stop-color:#243E7D"/>
		<stop  offset="0.2745" style="stop-color:#234E8B"/>
		<stop  offset="0.507" style="stop-color:#225996"/>
		<stop  offset="0.7457" style="stop-color:#22609D"/>
		<stop  offset="1" style="stop-color:#2262A0"/>
	</linearGradient>
	<path class="st1" d="M15.2,55.8c-0.4,0-0.9-0.1-1.1-0.3c-0.5-0.3-0.8-0.6-0.8-1c0.3-14.2,0.3-22.8,0.3-26.6L10.7,29
		c-0.3,0.2-0.5,0.3-0.9,0.3c-0.1,0-0.3,0-0.5,0c-0.5-0.1-0.9-0.3-1.1-0.6l-4.7-5.4C3,22.7,3.2,22,4.1,21.6c1.1-0.7,33.2-15,58-20.2
		c0.3,0,0.4-0.1,0.6-0.1c0.8,0,1.4,0.3,1.8,0.8c1.8,2.8,4.3,6.1,4.3,6.2c0.3,0.3,0.3,0.7,0,1s-0.6,0.6-1,0.7
		c-0.3,0.1-30.2,7.8-40.2,12.3v23.4c2.8-0.1,7.8-0.3,13.5-0.3c9.5,0,17.2,0.3,22.8,1c0.9,0.1,1.5,0.7,1.5,1.3V54
		c0,0.3-0.3,0.7-0.6,0.9c-0.4,0.2-0.8,0.3-1.3,0.3h-0.1c-0.1,0-13.6-0.7-26.7-0.7c-9.7,0-16.5,0.3-20.9,1.1
		C15.6,55.8,15.4,55.8,15.2,55.8z"/>
	<path class="st2" d="M62.7,2.6c2,2.8,4.3,6.2,4.3,6.2S34.9,17,25.6,21.6c0,12.3,0,25.4,0,25.4s6.9-0.3,15.4-0.3
		c7.3,0,15.8,0.3,22.4,1c0,3.7,0,6.2,0,6.2s-13.5-0.6-26.9-0.6c-8.1,0-16.3,0.3-21.4,1.1c0.4-20.3,0.4-29,0.4-29l-5.9,2.4L5,22.5
		C5,22.6,38,7.8,62.7,2.6 M62.7,0c-0.4,0-0.8,0-1.1,0.1C36.6,5.3,4.2,19.8,2.7,20.4c-1.7,0.8-2.3,2.2-1.1,3.4l4.7,5.3
		c0.5,0.6,1.4,1,2.5,1.2c0.3,0.1,0.6,0.1,0.9,0.1c0.6,0,1.3-0.1,1.8-0.3c0,4.6-0.1,12.5-0.3,24.2c0,0.8,0.5,1.6,1.5,2.1
		c0.6,0.3,1.5,0.5,2.4,0.5c0.4,0,0.6,0,1-0.1c2.7-0.5,8.4-1,20.1-1c13.1,0,26.4,0.7,26.5,0.7s0.3,0,0.3,0c0.9,0,2-0.3,2.7-0.7
		c0.8-0.5,1.3-1.2,1.3-1.9v-6.2c0-1.2-1.3-2.3-3.2-2.5c-5.9-0.7-13.6-1.1-23.2-1.1c-4.6,0-8.7,0.1-11.5,0.2V23
		c10.4-4.5,38.6-11.7,39-11.8c1-0.3,1.8-0.8,2.3-1.5c0.4-0.7,0.4-1.4-0.1-2.1c0,0-2.4-3.4-4.3-6.2C65.5,0.6,64.1,0,62.7,0L62.7,0z"
		/>
</g>
<g>
	<path class="st3" d="M38.2,36.6c-1.3,0-2.5-0.5-3.1-1.4c-0.1-0.3-0.3-0.6-0.4-1c-0.8,0.5-1.3,0.9-1.5,1.1c-0.4,0.3-0.6,0.4-1,0.6
		c-0.5,0.3-1,0.4-1.5,0.4c-0.8,0-1.7-0.3-1.7-1.2c0-0.6,0.4-1.3,1.1-2.2c0.8-0.9,1.4-1.5,2.4-1.5l1.8-1.4v-1.9
		c-0.4,0.2-0.8,0.3-1.1,0.6c-0.8,0.5-1.3,0.8-2,0.8c-0.1,0-1.5,0-1.5-1.3c0-0.5,0.5-1.1,1.7-2.2c0.9-0.8,2.2-1.6,3.3-2.2
		c1.4-0.9,2.5-1.2,3.3-1.2c0.4,0,1.3,0.1,1.8,0.8c0.4,0.3,0.5,0.9,0.5,1.4c0,0.3,0,0.5,0,0.8c0,0.1,0,0.1,0,0.2
		c3.2-2.1,4.1-2.3,4.7-2.3s1.1,0.2,1.4,0.5c0.3,0.3,0.4,0.5,0.4,0.9c0,0.5-0.5,1.2-1.5,2.1c-1.1,1-2,1.4-2.8,1.4c-0.1,0-0.3,0-0.4,0
		l-1.8,1.8c0,0.9,0.1,1.3,0.3,1.5l0,0c0.1,0,0.4-0.1,0.8-0.3c0.6-0.3,1.5-0.9,3.1-1.6c0.3-0.2,0.5-0.3,0.9-0.3c0.1,0,0.4,0,0.5,0.1
		c0.5,0.2,0.8,0.4,0.8,0.8v1c0,0.2-0.1,0.3-0.3,0.5C41.5,36.1,39.5,36.6,38.2,36.6z"/>
	<path class="st2" d="M37.8,23.6c0.3,0,0.5,0.1,0.8,0.3c0.3,0.3,0.4,0.5,0.4,0.9c0,0.3,0,0.5,0,0.7c0,0.3,0,0.5,0,0.9
		c0,0.3,0,0.9-0.1,1.6c3.4-2.4,5.5-3.6,6.2-3.6c0.1,0,0.4,0.1,0.4,0.2c0.1,0,0.1,0.2,0.1,0.3c0,0.3-0.4,0.9-1.3,1.6
		c-0.8,0.7-1.4,1-1.7,1c-0.4,0-0.6,0-0.9-0.1l-3.1,2.5c0,0.9,0.1,1.6,0.4,2c0.3,0.4,0.6,0.7,1.1,0.7s1-0.2,1.7-0.4
		c0.6-0.3,1.7-0.9,3.1-1.7v1c-3.2,2.9-5.6,4.3-6.9,4.3c-0.8,0-1.4-0.3-1.8-0.9c-0.4-0.6-0.5-1.5-0.6-2.7c-0.5,0.3-1.1,0.8-2,1.4
		c-0.8,0.5-1.3,0.9-1.5,1.1c-0.4,0.3-0.6,0.4-0.9,0.5c-0.3,0.2-0.5,0.3-0.8,0.3S30,35.4,30,35.2c0-0.4,0.4-0.9,1-1.7
		c0.6-0.7,1.1-1.1,1.4-1.1c0,0,0.1,0,0.4,0.1l2.7-2v-3.6c-0.5,0.1-1.1,0.3-1.7,0.5c-0.5,0.2-1,0.5-1.7,0.9c-0.5,0.3-0.9,0.5-1,0.5
		s-0.3-0.2-0.3-0.4s0.5-0.9,1.4-1.6c0.9-0.8,2-1.5,3.2-2.1C36.6,23.9,37.5,23.6,37.8,23.6 M37.8,21.9c-1.1,0-2.5,0.4-4.2,1.4
		c-1.1,0.7-2.4,1.5-3.4,2.3c-1.4,1.1-2,1.9-2,2.7c0,1.7,1.8,2.2,2.9,2.2c0.4,0,0.8-0.1,1.1-0.2l-0.6,0.5c-1.3,0.3-2.2,1-2.9,1.8
		c-0.9,1-1.4,1.8-1.4,2.6c0,1.4,1.4,2.1,3.1,2.1c0.8,0,1.5-0.2,2.4-0.6c0.4-0.2,0.8-0.4,1.1-0.7l0.1-0.1c0.8,1,2.3,1.6,4.1,1.6
		c2,0,4.3-0.9,8.9-5.1c0.3-0.3,0.5-0.7,0.5-1v-1c0-0.7-0.6-1.3-1.5-1.6c-0.4-0.1-0.6-0.2-1-0.2h-0.1c0.5-0.3,1-0.7,1.5-1.2
		c1.3-1,1.8-1.9,1.8-2.6c0-0.5-0.3-1-0.8-1.5c-0.6-0.5-1.5-0.8-2.5-0.8c-0.8,0-1.5,0.1-3.6,1.2c-0.1-0.3-0.3-0.6-0.5-0.9
		C40.3,22.2,39.1,21.9,37.8,21.9L37.8,21.9z M42.9,29.2L42.9,29.2c0,0.1-0.2,0.2-0.4,0.3L42.9,29.2L42.9,29.2z"/>
</g>
<g>
	<path class="st3" d="M42.5,42.4c-0.5,0-2.4-0.2-2.4-2.1c0-0.8,0.3-1.6,0.6-2.4c0.4-0.8,1-1.6,1.5-2.2c0.6-0.7,1.3-1.4,2.2-2.1
		c0.6-0.7,1.1-1.1,1.4-1.5c0.1-0.1,0.1-0.3,0.3-0.3c-0.3,0.2-0.4,0.3-0.6,0.4c-0.3,0.2-0.6,0.3-0.9,0.3c-0.1,0-0.4,0-0.5-0.1
		c-0.5-0.2-0.8-0.4-0.8-0.8v-1.1c0-0.3,0.1-0.4,0.4-0.6c2.2-1.6,4.1-3,5.7-4.4c1.5-1.4,2.9-2.5,3.8-3.3c1-0.9,2-1.6,2.8-1.9
		c0.9-0.4,2.2-0.7,3.4-0.7c1.4,0,2.2,0.6,2.2,1.3c0,0.4-0.3,0.9-0.9,1.5c-0.5,0.4-1,0.9-1.8,1.5c-0.5,0.3-1.1,0.8-1.7,1.3
		c0,0,0.1,0,0.1-0.1c0.8-0.3,1.5-0.7,2.4-0.9c0.8-0.3,1.7-0.3,2.7-0.3c0.3,0,1.3,0,1.8,0.4c0.4,0.3,0.5,0.9,0.5,1.1
		c0,0.9-0.4,1.8-1,2.7c-0.6,0.8-1.5,1.6-2.7,2.5c-0.5,0.3-1,0.7-1.5,1.1c1-0.3,2.7-0.9,4.7-2.2c0.3-0.2,0.5-0.3,0.9-0.3
		c0.1,0,0.4,0,0.5,0.1c0.5,0.2,0.8,0.4,0.8,0.8v1.1c0,0.3-0.1,0.5-0.4,0.6c-1.1,0.7-2.4,1.4-3.6,2C61.3,34.5,60,35,59,35.4
		c-1.1,0.4-2.4,0.7-3.4,0.7c-0.4,0-0.8,0-1.3-0.1c-0.6-0.2-1-0.2-1.4-0.2c-0.3-0.1-0.6-0.2-1.1-0.3c-0.3-0.1-0.5-0.1-0.6-0.2
		c-0.5,0.1-0.6,0.1-0.8,0.1c-0.4,0-0.9-0.1-1.3-0.2c-0.4,0.5-0.6,1-1,1.7c-0.6,1.1-1.1,1.9-1.5,2.5c-0.5,0.7-1,1.4-1.8,2
		C43.8,42.1,43.2,42.4,42.5,42.4z M53.1,31.2c0.3,0,0.6,0.1,1,0.2c1.1-0.9,2.2-1.6,2.7-2.2c0.4-0.3,0.5-0.6,0.6-0.8
		c-0.4,0.2-0.9,0.4-1.7,0.9C54.9,29.8,54,30.5,53.1,31.2z"/>
	<path class="st2" d="M59.5,20.7c0.5,0,0.8,0.2,0.8,0.4S60,21.6,59.6,22s-0.9,0.9-1.7,1.3c-0.9,0.6-1.7,1.3-2.7,2.2
		c-0.9,0.9-1.8,2-2.9,3.4c0.8-0.4,1.8-0.9,2.9-1.6s2-1,2.8-1.4c0.6-0.3,1.4-0.6,2.2-0.8c0.6-0.2,1.3-0.3,2.2-0.3
		c0.4,0,0.8,0.1,0.9,0.2c0.1,0.1,0.3,0.3,0.3,0.6c0,0.8-0.3,1.6-0.9,2.3c-0.5,0.8-1.4,1.6-2.5,2.3c-1,0.8-2.4,1.6-3.9,2.6
		c0.5,0.2,1,0.2,1.7,0.2c1.8,0,4.2-0.9,7.4-2.8v1.1c-1.1,0.7-2.4,1.4-3.6,2c-1.1,0.6-2.3,1.1-3.2,1.5c-1,0.3-2,0.5-2.8,0.5
		c-0.3,0-0.6,0-1-0.1s-0.6-0.1-0.9-0.2c-0.3-0.1-0.6-0.2-1.1-0.3s-0.8-0.2-1-0.3c-0.5,0.1-0.8,0.1-0.8,0.1c-0.5,0-1.1-0.2-2-0.4
		c-0.6,0.9-1.1,1.7-1.9,2.8c-0.6,1-1.1,1.9-1.5,2.5s-1,1.2-1.7,1.8c-0.4,0.3-0.6,0.3-0.8,0.3c-0.6,0-1-0.4-1-1.2
		c0-0.7,0.3-1.4,0.6-2.2c0.4-0.8,0.9-1.5,1.5-2.1c0.6-0.7,1.3-1.3,2-2c0.6-0.7,1.1-1.2,1.5-1.5c2.5-2.8,4.5-5.2,5.9-7.2
		c-3.6,2.8-6.4,4.9-8.1,6.2v-1.1c2.3-1.6,4.1-3,5.7-4.4c1.5-1.4,2.9-2.5,3.8-3.3c0.9-0.8,1.7-1.4,2.5-1.7
		C57.4,20.8,58.5,20.7,59.5,20.7 M50.4,32.1c0.9-0.1,1.5-0.1,2-0.1c0.1,0,0.3,0,0.4,0c0.4,0,0.9,0.2,1.5,0.4c1.5-1,2.8-2,3.4-2.8
		c0.8-0.8,1.1-1.3,1.1-1.7c0-0.3-0.3-0.6-0.9-0.6c-0.8,0-1.8,0.4-3.3,1.3C53.2,29.5,52,30.7,50.4,32.1 M59.5,19
		c-1.5,0-3.1,0.3-4.2,0.9c-0.9,0.4-2,1.1-3.1,2.1c-0.9,0.8-2.3,1.9-3.8,3.3c-1.5,1.3-3.4,2.8-5.5,4.3c-0.4,0.3-0.6,0.8-0.6,1.2v1
		c0,0.6,0.5,1.2,1.3,1.5c-0.8,0.7-1.4,1.4-2.2,2.1c-0.6,0.8-1.3,1.6-1.7,2.4c-0.5,0.9-0.8,1.8-0.8,2.8c0,2.2,2,2.9,3.7,2.9
		c1.1,0,2-0.4,2.7-0.9l0.1-0.1c0.8-0.7,1.5-1.4,2.2-2.2c0.4-0.7,0.9-1.5,1.5-2.6c0.3-0.3,0.4-0.7,0.6-1c0.1,0,0.4,0,0.5,0
		c0.3,0,0.4,0,0.6-0.1c0.1,0,0.1,0,0.3,0.1c0.5,0.2,0.9,0.3,1.3,0.3c0.4,0.1,0.8,0.2,1.3,0.3s1,0.1,1.5,0.1c1.3,0,2.7-0.3,4.1-0.8
		c1.1-0.4,2.4-0.9,3.6-1.6c1.1-0.6,2.4-1.3,3.6-2c0.5-0.3,0.9-0.8,0.9-1.3v-1.1c0-0.7-0.6-1.3-1.5-1.6c-0.4-0.1-0.6-0.2-1-0.2h-0.1
		c0.8-0.9,1-2,1-3c0-0.3,0-1.1-0.8-1.7c-0.6-0.5-1.5-0.8-2.9-0.8c-0.1,0-0.4,0-0.5,0l0.1-0.1c0.8-0.8,1-1.3,1-1.9
		C62.9,20.1,61.6,19,59.5,19L59.5,19z"/>
</g>
<g>
	<path class="st3" d="M69,36.5c-1.8,0-3.3-0.5-4.3-1.4s-1.4-2-1.4-3.4c0-1.2,0.4-2.3,1.3-3.4c0.8-0.9,2.3-2,4.1-3
		c1.3-0.7,2.7-1.3,3.9-1.6s2.7-0.6,3.7-0.6s1.8,0.2,2.5,0.5c0.5,0.3,1.1,0.8,1.1,1.6c0,0.9-0.5,1.6-1.3,2.4s-2.2,1.5-3.7,2.2
		c-1.4,0.6-3.1,1.1-5,1.6c0,0.3,0.1,0.5,0.4,0.7c0.1,0.1,0.4,0.3,0.8,0.3c0.5,0,1.1-0.1,1.8-0.3c0.8-0.2,1.4-0.5,2.3-0.9
		c0.8-0.3,1.7-0.9,2.9-1.6c0.3-0.2,0.5-0.2,0.8-0.2c0.1,0,0.4,0,0.5,0.1c0.5,0.2,0.8,0.4,0.8,0.8v0.9c0,0.2-0.1,0.4-0.3,0.5
		c-1.8,1.5-3.6,2.6-5.2,3.4C72.7,36.1,70.9,36.5,69,36.5z"/>
	<path class="st2" d="M76.2,23.9c0.8,0,1.3,0.1,1.7,0.3c0.4,0.3,0.6,0.5,0.6,1c0,0.7-0.4,1.3-1,1.9c-0.8,0.6-1.8,1.3-3.4,1.9
		c-1.5,0.6-3.4,1.2-5.7,1.8v0.3c0,0.6,0.3,1.1,0.6,1.4c0.4,0.3,1,0.5,1.8,0.5s1.5-0.1,2.4-0.3c0.8-0.3,1.7-0.5,2.5-0.9
		s1.8-0.9,3.1-1.6v0.9c-1.7,1.4-3.4,2.5-5,3.2c-1.5,0.8-3.2,1.1-4.7,1.1c-1.4,0-2.5-0.3-3.3-1s-1.1-1.7-1.1-2.9
		c0-1.1,0.4-2.1,1.1-2.9c0.8-0.9,2-1.8,3.8-2.8c1.1-0.7,2.4-1.2,3.6-1.6C74.2,24.1,75.3,23.9,76.2,23.9 M68.6,30
		c1.4-0.3,2.7-0.8,3.7-1.4c1-0.5,1.7-1,2.3-1.6c0.5-0.5,0.6-0.9,0.6-1c0-0.3-0.1-0.3-0.5-0.3c-0.3,0-0.8,0.1-1.3,0.3
		c-0.6,0.3-1.3,0.5-2,0.9c-0.6,0.3-1.1,0.9-1.7,1.4S68.9,29.4,68.6,30 M76.2,22.2c-1.3,0-2.7,0.2-4.2,0.7c-1.4,0.4-2.8,1-4.2,1.8
		c-2,1.1-3.4,2.2-4.3,3.3c-1,1.1-1.4,2.4-1.4,3.8c0,1.6,0.5,2.9,1.7,4c1.3,1.1,3.2,1.7,5.3,1.7c2.2,0,4.3-0.5,6.4-1.5
		c1.7-0.9,3.6-2,5.5-3.5c0.4-0.3,0.6-0.7,0.6-1.1v-0.9c0-0.7-0.6-1.3-1.5-1.6c-0.3-0.1-0.5-0.2-0.9-0.2c0.1-0.2,0.4-0.3,0.5-0.4
		c1-0.9,1.5-2,1.5-3c0-0.9-0.5-1.8-1.7-2.3C78.7,22.5,77.6,22.2,76.2,22.2L76.2,22.2z"/>
</g>
<g>
	<path class="st3" d="M85.6,36.1c-0.8,0-1.8-0.2-2.8-0.9c-0.6-0.5-0.9-1.3-0.9-2.2c0-0.5,0.3-1.2,0.6-1.8c0.4-0.6,0.9-1.3,1.7-2
		c0.1-0.1,0.1-0.2,0.3-0.3c-0.3,0-0.5,0.1-0.6,0.1c-1,1.2-2.5,2.3-4.2,3.4c-0.3,0.2-0.5,0.2-0.9,0.2c-0.1,0-0.4,0-0.5-0.1
		c-0.5-0.2-0.8-0.4-0.8-0.8v-1c0-0.2,0.1-0.4,0.3-0.5c0.4-0.3,0.8-0.6,1-0.9l-0.1-0.1c-0.4-0.3-0.6-0.8-0.6-1.3s0.3-1.1,0.9-1.8
		c0.5-0.6,1.1-1.2,2-1.7c0.8-0.6,1.5-0.9,2.4-1.2c0.3-0.1,0.6-0.2,1-0.2c1,0,1.8,0.5,1.8,1.1c2.7-0.3,3.6-0.3,4.1-0.3
		s0.9,0.1,1.3,0.2c0.6,0.2,1,0.6,1.3,1.1C93,25.5,93,26,93,26.4s-0.3,0.8-0.6,1.2c-0.4,0.3-0.8,0.7-1.5,1.2
		c-0.8,0.5-1.3,1.1-1.8,1.7c-0.4,0.5-0.6,0.9-0.6,1l0,0c0.1,0,1-0.1,4.2-1.7c0.3-0.1,0.5-0.2,0.8-0.2c0.1,0,0.4,0,0.5,0.1
		c0.4,0.2,0.8,0.4,0.8,0.8v1c0,0.3-0.1,0.4-0.4,0.6c-1.3,0.9-2.4,1.6-3.3,2.2c-0.9,0.5-1.7,0.9-2.5,1.3
		C87.2,35.8,86.3,36.1,85.6,36.1z"/>
	<path class="st2" d="M84,23.7c0.3,0,0.5,0.1,0.5,0.3s-0.3,0.5-0.8,1c3.3-0.3,5.2-0.5,6.2-0.5c0.4,0,0.5,0,0.6,0.1
		c0.3,0.1,0.5,0.3,0.6,0.7c0.1,0.3,0.3,0.7,0.3,1S91.3,26.7,91,27s-0.8,0.6-1.4,1.1c-0.8,0.6-1.5,1.2-2.2,1.9
		c-0.5,0.7-0.8,1.2-0.8,1.6c0,0.5,0.4,0.7,1.3,0.7s2.7-0.6,5-1.9v1c-1.3,0.9-2.4,1.6-3.3,2.2c-0.8,0.5-1.5,0.9-2.4,1.2
		c-0.6,0.3-1.3,0.4-2,0.4c-0.6,0-1.1-0.2-1.7-0.6C83.3,34.3,83,33.8,83,33c0-0.4,0.1-0.9,0.5-1.6c0.4-0.6,0.8-1.2,1.5-1.8
		c0.6-0.7,1.4-1.3,2.3-2c-0.4,0.1-0.9,0.1-1.4,0.2S84.8,28,84.3,28c-0.6,0.1-1,0.1-1.4,0.2c-0.9,1.3-2.4,2.4-4.2,3.4v-1
		c0.8-0.7,1.4-1.2,2-1.7c-0.5-0.1-0.9-0.3-1-0.4c-0.3-0.2-0.4-0.4-0.4-0.8s0.3-0.9,0.6-1.4c0.5-0.6,1-1.1,1.7-1.6s1.3-0.8,1.8-0.9
		C83.7,23.7,83.8,23.7,84,23.7 M84,22c-0.5,0-1.1,0.1-1.7,0.3c-0.9,0.3-1.8,0.7-2.8,1.4c-0.8,0.6-1.5,1.2-2.2,1.9
		c-0.6,0.9-1,1.6-1,2.2s0.3,1.1,0.5,1.5c-0.1,0.1-0.3,0.2-0.4,0.3c-0.4,0.3-0.6,0.7-0.6,1.1v1c0,0.7,0.6,1.3,1.5,1.6
		c0.4,0.1,0.8,0.2,1,0.2c0.6,0,1.1-0.2,1.7-0.4c0.1-0.1,0.1-0.1,0.3-0.2c0,0.1,0,0.1,0,0.2c0,1.1,0.4,2.1,1.1,2.8
		c0.9,0.9,2.3,1.3,3.8,1.3c1,0,2.3-0.3,3.3-0.7c0.8-0.3,1.7-0.9,2.8-1.4c0.9-0.5,2-1.3,3.3-2.2c0.5-0.3,0.8-0.8,0.8-1.2v-1
		c0-0.7-0.5-1.3-1.4-1.6c-0.4-0.1-0.8-0.2-1.1-0.2c-0.3,0-0.5,0-0.6,0.1c0.4-0.3,0.6-0.5,0.9-0.7c0.6-0.5,0.9-1.1,0.9-1.7
		c0-0.5-0.1-1-0.4-1.6c-0.4-0.8-1-1.3-2-1.6l0,0c-0.5-0.2-1-0.3-1.8-0.3c-0.4,0-1.1,0-3.2,0.2C86.3,22.4,85.3,22,84,22L84,22z"/>
</g>
<g>
	<path class="st3" d="M95.8,36.8c-1,0-2.2-0.3-2.8-0.9c-0.6-0.5-0.9-1.1-0.9-1.9c0-0.4,0.1-0.9,0.4-1.6c-0.1,0-0.1,0-0.3-0.1
		c-0.5-0.2-0.8-0.4-0.8-0.8v-1c0-0.3,0.1-0.5,0.5-0.7c1.1-0.7,2.7-1.7,4.3-3.3c-0.3,0-0.5,0.1-0.6,0.1s-0.3,0.1-0.4,0.1
		c-0.3,0.1-0.5,0.1-0.8,0.1c-0.8,0-1.4-0.4-1.4-0.9s0.4-1.1,1.1-2c0.5-0.6,1.1-1.1,1.7-1.5c0.6-0.3,1.4-0.6,2.3-0.8
		c0.8-0.1,1.8-0.2,3.2-0.2h0.3c0.8-0.9,1.4-1.5,2.2-1.8c0.9-0.5,2-0.9,3.2-0.9c2.4,0,2.7,0.9,2.7,1.2c0,0.3-0.3,0.8-1.3,1.6
		c0,0.1-0.1,0.1-0.1,0.2c0.1,0,0.1,0,0.3,0c0.4,0,0.8,0.2,1,0.4c0.3,0.3,0.1,0.5,0,0.8c-0.9,1.1-2.2,2.3-3.6,3.4
		c-0.5,0.3-0.9,0.5-1.3,0.5l-2.4-0.1c-0.6,0.7-1.1,1.4-1.7,1.9c-0.5,0.7-0.9,1.3-1.1,1.8c-0.3,0.5-0.4,1-0.4,1.4c0,0.1,0,0.2,0,0.2
		c0.3,0,0.6-0.1,1.5-0.5s2.3-1,3.8-1.9c0.3-0.1,0.5-0.2,0.8-0.2c0.1,0,0.4,0,0.5,0.1c0.4,0.2,0.8,0.4,0.8,0.8v1
		c0,0.3-0.1,0.4-0.4,0.6C101.5,35.3,98.2,36.8,95.8,36.8z"/>
	<path class="st2" d="M107,19.7c0.9,0,1.3,0.1,1.3,0.3c0,0.1-0.4,0.4-1,1c-0.6,0.5-1.1,1-1.5,1.4c0.5,0,1,0.1,1.4,0.1
		s0.8,0.1,0.9,0.1c-0.9,1.1-2,2.2-3.4,3.4c-0.4,0-0.8,0-1-0.1c-0.3,0-0.6,0-0.9-0.1c-0.3,0-0.6,0-1.1-0.1c-0.8,0.9-1.5,1.7-2.2,2.4
		c-0.5,0.7-1,1.4-1.3,1.9c-0.3,0.6-0.4,1.1-0.4,1.6c0,0.7,0.4,1,1.3,1c0.6,0,1.3-0.2,2.4-0.6c0.9-0.4,2.3-1,3.8-1.9v1
		c-4.2,3-7.4,4.5-9.4,4.5c-0.6,0-1.3-0.2-1.7-0.5c-0.4-0.3-0.6-0.9-0.6-1.4c0-0.3,0.1-0.9,0.4-1.4s0.6-1.3,1.3-2.4
		c-0.3,0.1-0.4,0.3-0.6,0.3c-0.1,0.1-0.4,0.3-0.5,0.3c-0.1,0.1-0.4,0.2-0.5,0.3c-0.1,0.1-0.4,0.3-0.5,0.3v-1
		c1.7-0.9,3.7-2.5,6.1-4.7c-0.3,0-0.4,0-0.6,0s-0.4,0-0.8,0c-0.9,0-1.5,0-2.2,0.1c-0.1,0-0.4,0.1-0.5,0.1s-0.3,0.1-0.4,0.1
		c0,0-0.1,0-0.1-0.1c0-0.3,0.3-0.9,0.9-1.6c0.5-0.6,1-1,1.4-1.3c0.5-0.3,1-0.4,1.7-0.6c0.6-0.1,1.5-0.2,2.8-0.2h1
		c0.8-0.9,1.5-1.6,2.3-2.1C105.2,19.9,105.9,19.7,107,19.7 M107,18c-1.5,0-2.9,0.3-4.1,1c-0.6,0.4-1.3,0.9-2,1.6
		c-1.1,0-2.2,0.1-2.9,0.2c-1.1,0.2-2.2,0.5-2.9,0.9c-0.6,0.4-1.3,0.9-2,1.6c-0.9,0.9-1.3,1.7-1.3,2.4c0,0.8,0.6,1.5,1.7,1.7
		c-0.9,0.7-1.7,1.2-2.4,1.6c-0.6,0.3-0.9,0.8-0.9,1.3v1c0,0.4,0.3,0.9,0.8,1.2c-0.3,0.5-0.3,0.9-0.3,1.3c0,0.9,0.4,1.8,1.1,2.4
		c0.9,0.8,2.3,1.2,3.8,1.2c2.9,0,6.5-1.6,11.3-5.1c0.4-0.3,0.6-0.8,0.6-1.2v-1c0-0.7-0.5-1.3-1.4-1.6c-0.4-0.1-0.8-0.2-1.1-0.2
		c-0.6,0-1.1,0.2-1.7,0.4c-1,0.6-2,1-2.8,1.4c0.3-0.4,0.5-0.9,0.9-1.4c0.4-0.4,0.8-0.9,1.1-1.4h0.4c0.3,0,0.6,0,1.1,0.1h0.1
		c0.8,0,1.5-0.3,2.2-0.7c1.4-1.2,2.7-2.4,3.6-3.6c0.4-0.5,0.4-1.1,0-1.6c-0.1-0.2-0.3-0.3-0.4-0.3c0.5-0.5,0.8-0.9,0.8-1.4
		C110.8,19.3,109.9,18,107,18L107,18z"/>
</g>
<g>
	<path d="M34.9,30v-3.6c-0.5,0.1-1.1,0.3-1.7,0.5c-0.5,0.3-1,0.5-1.7,0.9c-0.5,0.3-0.9,0.5-1,0.5s-0.3-0.2-0.3-0.4s0.5-0.9,1.4-1.6
		c0.9-0.8,2-1.5,3.2-2.1c1.1-0.6,2-0.9,2.5-0.9c0.3,0,0.5,0.1,0.8,0.3c0.3,0.3,0.4,0.5,0.4,0.9c0,0.3,0,0.5,0,0.7c0,0.3,0,0.5,0,0.9
		c0,0.3,0,0.9-0.1,1.6c3.4-2.4,5.5-3.6,6.2-3.6c0.1,0,0.4,0.1,0.4,0.2c0.1,0.1,0.1,0.3,0.1,0.3c0,0.3-0.4,0.9-1.3,1.6
		c-0.8,0.7-1.4,1-1.7,1c-0.4,0-0.6,0-0.9-0.1l-3.1,2.5c0,0.9,0.1,1.6,0.4,2s0.6,0.7,1.1,0.7s1-0.2,1.7-0.4c0.6-0.3,1.7-0.9,3.1-1.7
		v0.9c-3.2,2.9-5.5,4.4-6.9,4.4c-0.8,0-1.4-0.3-1.8-0.9c-0.4-0.6-0.5-1.5-0.6-2.7c-0.5,0.3-1.1,0.8-2,1.4c-0.8,0.5-1.3,0.9-1.5,1.1
		c-0.4,0.3-0.6,0.4-0.9,0.5c-0.3,0.2-0.5,0.3-0.8,0.3s-0.4-0.1-0.4-0.3c0-0.4,0.4-0.9,1-1.7c0.6-0.7,1.1-1.1,1.4-1.1
		c0,0,0.1,0,0.4,0.1L34.9,30z"/>
</g>
<g>
	<path d="M44.2,31.3v-1.1c2.3-1.6,4.1-3,5.7-4.4c1.5-1.4,2.9-2.5,3.8-3.3s1.7-1.4,2.5-1.7c0.6-0.3,1.5-0.5,2.7-0.5
		c0.5,0,0.8,0.2,0.8,0.4s-0.3,0.5-0.6,0.9c-0.4,0.4-0.9,0.9-1.7,1.3c-0.9,0.6-1.7,1.3-2.7,2.2c-0.9,0.9-1.8,2-2.9,3.4
		c0.8-0.4,1.8-0.9,2.9-1.6c1.1-0.7,2-1,2.8-1.4c0.6-0.3,1.4-0.6,2.2-0.8c0.6-0.2,1.3-0.3,2.2-0.3c0.4,0,0.8,0.1,0.9,0.2
		c0.1,0.1,0.3,0.3,0.3,0.6c0,0.8-0.3,1.6-0.9,2.3c-0.5,0.8-1.4,1.6-2.5,2.3c-1,0.8-2.4,1.6-3.9,2.6c0.5,0.2,1,0.2,1.7,0.2
		c1.8,0,4.2-0.9,7.4-2.8v1.1c-1.1,0.7-2.4,1.4-3.6,2c-1.1,0.6-2.3,1.1-3.2,1.5c-1,0.3-2,0.5-2.8,0.5c-0.3,0-0.6,0-1-0.1
		c-0.6,0-0.9,0-1.1-0.1s-0.6-0.2-1.1-0.3s-0.8-0.2-1-0.3c-0.5,0.1-0.8,0.1-0.8,0.1c-0.5,0-1.1-0.2-2-0.4c-0.5,0.7-1,1.6-1.7,2.6
		s-1.1,1.9-1.5,2.5s-1,1.2-1.7,1.8c-0.6,0.3-0.9,0.3-1,0.3c-0.6,0-1-0.4-1-1.2c0-0.7,0.3-1.4,0.6-2.2c0.4-0.8,0.9-1.5,1.5-2.1
		c0.6-0.7,1.3-1.3,2-2c0.8-0.7,1.1-1.2,1.5-1.5c2.5-2.8,4.5-5.2,5.9-7.2C48.8,28,46,30.1,44.2,31.3z M53.7,32.1c1.5-1,2.8-2,3.4-2.8
		c0.8-0.8,1.1-1.3,1.1-1.7c0-0.3-0.3-0.6-0.9-0.6c-0.8,0-1.8,0.4-3.3,1.3s-2.9,2-4.3,3.4c1.1-0.1,2-0.1,2.4-0.1
		C52.5,31.6,53,31.8,53.7,32.1z"/>
</g>
<g>
	<path d="M67.9,30.6v0.3c0,0.6,0.3,1.1,0.6,1.4s1,0.5,1.8,0.5s1.5-0.1,2.4-0.3c0.8-0.3,1.7-0.5,2.5-0.9s1.8-0.9,3.1-1.6v0.9
		c-1.7,1.4-3.4,2.5-5,3.2c-1.5,0.7-3.2,1.1-4.7,1.1c-1.4,0-2.5-0.3-3.3-1s-1.1-1.7-1.1-2.9c0-1.1,0.4-2.1,1.1-2.9
		c0.8-0.9,2-1.8,3.8-2.8c1.1-0.7,2.4-1.2,3.6-1.6c1.1-0.3,2.3-0.5,3.2-0.5c0.8,0,1.3,0.1,1.7,0.3c0.4,0.3,0.6,0.5,0.6,1
		c0,0.7-0.4,1.3-1,1.9c-0.8,0.6-1.8,1.3-3.4,1.9C72,29.4,70,30,67.9,30.6z M68,29.6c1.4-0.3,2.7-0.8,3.7-1.4c1-0.5,1.7-1,2.3-1.6
		c0.5-0.5,0.6-0.9,0.6-1c0-0.3-0.1-0.3-0.5-0.3c-0.3,0-0.8,0.1-1.3,0.3c-0.6,0.3-1.3,0.5-2,0.9c-0.6,0.3-1.1,0.9-1.7,1.4
		C68.5,28.3,68.3,28.9,68,29.6z"/>
</g>
<g>
	<path d="M77.9,31.2v-1c0.8-0.7,1.4-1.2,2-1.7c-0.5-0.1-0.9-0.3-1-0.4c-0.3-0.2-0.4-0.4-0.4-0.8s0.3-0.9,0.6-1.4
		c0.5-0.6,1-1.1,1.7-1.6c0.6-0.5,1.3-0.8,1.8-0.9c0.3-0.1,0.4-0.1,0.6-0.1s0.5,0.1,0.5,0.3s-0.3,0.5-0.8,1c3.3-0.3,5.2-0.5,6.2-0.5
		c0.4,0,0.5,0,0.6,0.1c0.3,0.1,0.5,0.3,0.6,0.7c0.1,0.3,0.3,0.7,0.3,1s-0.1,0.4-0.4,0.7s-0.8,0.6-1.4,1.1c-0.8,0.6-1.5,1.2-2.2,1.9
		c-0.5,0.7-0.8,1.2-0.8,1.6c0,0.5,0.4,0.7,1.3,0.7s2.7-0.6,5-1.9v1.1C91,32,89.9,32.8,89,33.3c-0.8,0.5-1.5,0.9-2.4,1.2
		c-0.6,0.3-1.3,0.4-2,0.4c-0.8,0-1.1-0.2-1.7-0.6c-0.4-0.4-0.6-0.9-0.6-1.7c0-0.4,0.1-0.9,0.5-1.6c0.4-0.6,0.8-1.2,1.5-1.8
		c0.6-0.7,1.4-1.3,2.3-2c-0.4,0.1-0.9,0.1-1.4,0.2s-1.1,0.2-1.7,0.2c-0.6,0.1-1,0.1-1.4,0.2C81.2,28.9,79.7,30.2,77.9,31.2z"/>
</g>
<g>
	<path d="M100.6,22h1c0.8-0.9,1.5-1.6,2.3-2.1s1.4-0.6,2.4-0.6c0.9,0,1.3,0.1,1.3,0.3c0,0.1-0.4,0.4-1,1c-0.6,0.5-1.1,1-1.5,1.4
		c0.5,0,1,0.1,1.4,0.1s0.8,0.1,0.9,0.1c-0.9,1.1-2,2.2-3.4,3.4c-0.4,0-0.8,0-1-0.1c-0.3,0-0.6,0-0.9-0.1c-0.3,0-0.6,0-1.1-0.1
		c-0.8,0.9-1.5,1.7-2.2,2.4c-0.5,0.7-1,1.4-1.3,1.9c-0.3,0.6-0.4,1.1-0.4,1.6c0,0.7,0.4,1,1.3,1c0.6,0,1.3-0.2,2.4-0.6
		c0.9-0.4,2.3-1,3.8-1.9v1.2c-4.2,3-7.4,4.5-9.4,4.5c-0.6,0-1.3-0.2-1.7-0.5c-0.4-0.3-0.6-0.9-0.6-1.4c0-0.3,0.1-0.9,0.4-1.4
		s0.6-1.3,1.3-2.4C94.3,29.8,94.2,30,94,30c-0.1,0.1-0.4,0.3-0.5,0.3c-0.1,0.1-0.4,0.2-0.5,0.3c-0.1,0.1-0.4,0.3-0.5,0.3v-1
		c1.7-0.9,3.7-2.5,6.1-4.7c-0.3,0-0.4,0-0.6,0c-0.3,0-0.4,0-0.8,0c-0.9,0-1.5,0-2.2,0.1c-0.1,0-0.4,0.1-0.5,0.1s-0.3,0.1-0.4,0.1
		c0,0-0.1,0-0.1-0.1c0-0.3,0.3-0.9,0.9-1.6c0.5-0.6,1-1,1.4-1.3c0.5-0.3,1-0.4,1.7-0.6C98.4,22.1,99.4,22,100.6,22z"/>
</g>
<g>
	<g>
		<linearGradient id="SVGID_2_" gradientUnits="userSpaceOnUse" x1="68.6452" y1="43.2896" x2="78.5189" y2="43.2896">
			<stop  offset="0" style="stop-color:#253B79"/>
			<stop  offset="4.716355e-02" style="stop-color:#243E7D"/>
			<stop  offset="0.2745" style="stop-color:#234E8B"/>
			<stop  offset="0.507" style="stop-color:#225996"/>
			<stop  offset="0.7457" style="stop-color:#22609D"/>
			<stop  offset="1" style="stop-color:#2262A0"/>
		</linearGradient>
		<path class="st4" d="M69.3,41.8c-0.3,0-0.6,0-0.6-0.4c0-0.2,0.1-0.6,0.1-0.8c0.2-0.9,0.1-1.2,1.1-1.6c1.6-0.7,3.6-0.9,5.3-0.9
			c0.7,0,1.5,0,2.1,0.2c0.9,0.2,0.8,0.6,1.2,1.6c0.1,0.3-0.3,0.9-0.5,1.2l-3.3,5.1l0,0c0.1-0.1,0.3,0,0.3,0.2c0,0.3-0.4,0.8-0.6,1
			c-0.3,0.3-0.8,1.2-1.3,1.2c-0.4,0-0.8-0.2-0.8-0.6c0-1.4,2.6-4.7,3.5-5.9l1.4-1.8c-2.4,0-4.9,0.4-7.2,1.1v0c0.2,0,1.1,0.1,1.1,0.4
			c0,0.3-0.6,0.1-1.1,0.1L69.3,41.8z"/>
		<linearGradient id="SVGID_3_" gradientUnits="userSpaceOnUse" x1="77.3148" y1="43.3324" x2="83.8348" y2="43.3324">
			<stop  offset="0" style="stop-color:#253B79"/>
			<stop  offset="4.716355e-02" style="stop-color:#243E7D"/>
			<stop  offset="0.2745" style="stop-color:#234E8B"/>
			<stop  offset="0.507" style="stop-color:#225996"/>
			<stop  offset="0.7457" style="stop-color:#22609D"/>
			<stop  offset="1" style="stop-color:#2262A0"/>
		</linearGradient>
		<path class="st5" d="M78.4,46.1c0.7-0.6,3.3-2.8,4.1-2.8c0.3,0,0.7,0.4,0.7,0.7c0,0.3-0.6,0.9-0.7,1.1c-0.9,1.1-0.8,1.1-0.8,1.3
			c0,0.2,0.1,0.3,0.3,0.3c0.5,0,1.5-0.8,1.9-1l0.1,0.6c-0.7,0.5-2.4,1.9-3.2,1.9c-0.4,0-0.7-0.4-0.7-0.8c0-0.9,1-2,1.5-2.6l0,0
			c-2.4,1.7-3.1,3.2-3.6,3.2c-0.5,0-0.6-1.1-0.6-1.4c0-1,0.4-1.7,0.9-2.5c1.7-2.8,4.5-5.3,5-5.3c0.2,0,0.6,0.1,0.6,0.4
			c0,1-4.5,5.7-5.4,6.6V46.1z"/>
		<linearGradient id="SVGID_4_" gradientUnits="userSpaceOnUse" x1="83.6354" y1="45.325" x2="89.0316" y2="45.325">
			<stop  offset="0" style="stop-color:#253B79"/>
			<stop  offset="4.716355e-02" style="stop-color:#243E7D"/>
			<stop  offset="0.2745" style="stop-color:#234E8B"/>
			<stop  offset="0.507" style="stop-color:#225996"/>
			<stop  offset="0.7457" style="stop-color:#22609D"/>
			<stop  offset="1" style="stop-color:#2262A0"/>
		</linearGradient>
		<path class="st6" d="M89,45.8c-0.9,1-2.4,2.3-3.8,2.3c-1,0-1.5-0.9-1.6-1.9c-0.1-1.9,2-3.8,3.9-3.8c0.5,0,1,0.1,1,0.7
			c0,0.7-0.7,1.8-3.4,2.6l0,0.3c0,0.5,0.4,0.7,0.9,0.7c1,0,2.2-1,3-1.6L89,45.8z M87.3,43.5c0-0.1-0.1-0.2-0.2-0.2
			c-0.7,0.2-1.5,0.9-1.9,1.8C86.4,44.7,87.3,43.7,87.3,43.5z"/>
		<linearGradient id="SVGID_5_" gradientUnits="userSpaceOnUse" x1="88.6753" y1="45.3534" x2="99.1247" y2="45.3534">
			<stop  offset="0" style="stop-color:#253B79"/>
			<stop  offset="4.716355e-02" style="stop-color:#243E7D"/>
			<stop  offset="0.2745" style="stop-color:#234E8B"/>
			<stop  offset="0.507" style="stop-color:#225996"/>
			<stop  offset="0.7457" style="stop-color:#22609D"/>
			<stop  offset="1" style="stop-color:#2262A0"/>
		</linearGradient>
		<path class="st7" d="M93.6,47.1c-0.3,0.3-0.8,0.9-1.3,0.9c-0.3,0-0.6-0.3-0.6-0.6c0-0.4,0.3-1.1,1.3-2.5c0,0,0.1-0.1,0.1-0.2
			c0-0.1,0-0.1-0.1-0.1c-0.1,0-0.5,0.3-0.6,0.4c-0.7,0.8-1.5,1.6-2.2,2.5c-0.2,0.2-0.4,0.4-0.6,0.4c-0.7,0-0.9-1.1-0.9-1.6
			c0-1.4,1.5-3.3,2.4-3.2c0.2,0,0.6,0,0.6,0.3c0,0.3-0.4,0.7-0.6,0.9c-0.3,0.3-0.6,0.6-0.8,0.9c-0.2,0.2-0.4,0.4-0.4,0.7
			c0,0,0,0.1,0.1,0.1c0.1,0,0.2-0.2,0.3-0.2c0.7-0.7,3.2-3.3,4.2-3.3c0.4,0,0.6,0.3,0.6,0.7c0,0.6-1,1.8-1.3,2.3l0,0l3.2-2.5
			c0.1-0.1,0.5-0.4,0.7-0.4c0.1,0,0.3,0.3,0.3,0.4c0.1,0.2,0.3,0.4,0.3,0.6c0,0.2-0.3,0.6-0.4,0.7c-1.1,1.2-1.2,1.5-1.2,1.8
			c0,0.2,0.2,0.4,0.3,0.4c0.3-0.1,0.5-0.1,2.2-1.3l0.1,0.7c-0.7,0.5-2.7,2.2-3.5,2.2c-0.4,0-0.7-0.4-0.7-0.8c0-0.7,0.7-1.7,1.1-2.3
			l0,0L93.6,47.1z"/>
		<linearGradient id="SVGID_6_" gradientUnits="userSpaceOnUse" x1="98.825" y1="45.325" x2="104.2213" y2="45.325">
			<stop  offset="0" style="stop-color:#253B79"/>
			<stop  offset="4.716355e-02" style="stop-color:#243E7D"/>
			<stop  offset="0.2745" style="stop-color:#234E8B"/>
			<stop  offset="0.507" style="stop-color:#225996"/>
			<stop  offset="0.7457" style="stop-color:#22609D"/>
			<stop  offset="1" style="stop-color:#2262A0"/>
		</linearGradient>
		<path class="st8" d="M104.2,45.8c-0.9,1-2.4,2.3-3.8,2.3c-1,0-1.5-0.9-1.6-1.9c-0.1-1.9,2-3.8,3.9-3.8c0.5,0,1,0.1,1,0.7
			c0,0.7-0.7,1.8-3.4,2.6l0,0.3c0,0.5,0.4,0.7,0.9,0.7c1,0,2.2-1,3-1.6L104.2,45.8z M102.5,43.5c0-0.1-0.1-0.2-0.2-0.2
			c-0.7,0.2-1.5,0.9-1.9,1.8C101.6,44.7,102.5,43.7,102.5,43.5z"/>
		<linearGradient id="SVGID_7_" gradientUnits="userSpaceOnUse" x1="102.7411" y1="45.1271" x2="109.1185" y2="45.1271">
			<stop  offset="0" style="stop-color:#253B79"/>
			<stop  offset="4.716355e-02" style="stop-color:#243E7D"/>
			<stop  offset="0.2745" style="stop-color:#234E8B"/>
			<stop  offset="0.507" style="stop-color:#225996"/>
			<stop  offset="0.7457" style="stop-color:#22609D"/>
			<stop  offset="1" style="stop-color:#2262A0"/>
		</linearGradient>
		<path class="st9" d="M109,45.5l0.1,0.5c-0.9,0.9-2.4,2.2-3.6,2.1c-1,0-2-0.6-2.3-1.6c-0.1,0.1-0.2,0.2-0.3,0.2
			c-0.1,0-0.2-0.1-0.2-0.3c0-0.2,0.2-0.4,0.3-0.5l3.1-2.8c0-0.5,0.3-0.9,0.8-0.9c0.4,0,0.5,0.1,0.6,0.5c0.1,0.5,0.3,1,0.3,1.7
			c0,1.2-0.9,2-1.9,2.6c0.9,0.2,1.5-0.3,2.2-0.8L109,45.5z M104.1,45.8c0.5,0,0.8,0.5,1.1,0.8c0.9-0.5,1.1-0.8,1.1-1.6
			c0-0.3-0.1-0.7-0.2-1.2L104.1,45.8z"/>
	</g>
	<g>
		<path class="st3" d="M69.3,41.7c-0.3,0-0.6,0-0.6-0.4c0-0.2,0.1-0.6,0.1-0.8c0.2-0.9,0.1-1.2,1.1-1.6c1.6-0.7,3.6-0.9,5.3-0.9
			c0.7,0,1.5,0,2.1,0.2c0.9,0.2,0.8,0.6,1.2,1.6c0.1,0.3-0.3,0.9-0.5,1.2L74.6,46l0,0c0.1-0.1,0.3,0,0.3,0.2c0,0.3-0.4,0.8-0.6,1
			c-0.3,0.3-0.8,1.2-1.3,1.2c-0.4,0-0.8-0.2-0.8-0.6c0-1.4,2.6-4.7,3.5-5.9l1.4-1.8c-2.4,0-4.9,0.4-7.2,1.1v0c0.2,0,1.1,0.1,1.1,0.4
			c0,0.3-0.6,0.1-1.1,0.1L69.3,41.7z"/>
		<path class="st3" d="M78.4,46c0.7-0.6,3.3-2.8,4.1-2.8c0.3,0,0.7,0.4,0.7,0.7c0,0.3-0.6,0.9-0.7,1.1c-0.9,1.1-0.8,1.1-0.8,1.3
			c0,0.2,0.1,0.3,0.3,0.3c0.5,0,1.5-0.8,1.9-1l0.1,0.6c-0.7,0.5-2.4,1.9-3.2,1.9c-0.4,0-0.7-0.4-0.7-0.8c0-0.9,1-2,1.5-2.6l0,0
			c-2.4,1.7-3.1,3.2-3.6,3.2c-0.5,0-0.6-1.1-0.6-1.4c0-1,0.4-1.7,0.9-2.5c1.7-2.8,4.5-5.3,5-5.3c0.2,0,0.6,0.1,0.6,0.4
			c0,1-4.5,5.7-5.4,6.6V46z"/>
		<path class="st3" d="M89,45.7c-0.9,1-2.4,2.3-3.8,2.3c-1,0-1.5-0.9-1.6-1.9c-0.1-1.9,2-3.8,3.9-3.8c0.5,0,1,0.1,1,0.7
			c0,0.7-0.7,1.8-3.4,2.6l0,0.3c0,0.5,0.4,0.7,0.9,0.7c1,0,2.2-1,3-1.6L89,45.7z M87.3,43.4c0-0.1-0.1-0.2-0.2-0.2
			c-0.7,0.2-1.5,0.9-1.9,1.8C86.4,44.6,87.3,43.6,87.3,43.4z"/>
		<path class="st3" d="M93.7,46.9c-0.3,0.3-0.8,0.9-1.3,0.9c-0.3,0-0.6-0.3-0.6-0.6c0-0.4,0.3-1.1,1.3-2.5c0,0,0.1-0.1,0.1-0.2
			c0-0.1,0-0.1-0.1-0.1c-0.1,0-0.5,0.3-0.6,0.4c-0.7,0.8-1.5,1.6-2.2,2.5c-0.2,0.2-0.4,0.4-0.6,0.4c-0.7,0-0.9-1.1-0.9-1.6
			c0-1.4,1.5-3.3,2.4-3.2c0.2,0,0.6,0,0.6,0.3c0,0.3-0.4,0.7-0.6,0.9c-0.3,0.3-0.6,0.6-0.8,0.9c-0.2,0.2-0.4,0.4-0.4,0.7
			c0,0,0,0.1,0.1,0.1c0.1,0,0.2-0.2,0.3-0.2c0.7-0.7,3.2-3.3,4.2-3.3c0.4,0,0.6,0.3,0.6,0.7c0,0.6-1,1.8-1.3,2.3l0,0l3.2-2.5
			c0.1-0.1,0.5-0.4,0.7-0.4c0.1,0,0.3,0.3,0.3,0.4c0.1,0.2,0.3,0.4,0.3,0.6c0,0.2-0.3,0.6-0.4,0.7c-1.1,1.2-1.2,1.5-1.2,1.8
			c0,0.2,0.2,0.4,0.3,0.4c0.3-0.1,0.5-0.1,2.2-1.3l0.1,0.7c-0.7,0.5-2.7,2.2-3.5,2.2c-0.4,0-0.7-0.4-0.7-0.8c0-0.7,0.7-1.7,1.1-2.3
			l0,0L93.7,46.9z"/>
		<path class="st3" d="M104.2,45.7c-0.9,1-2.4,2.3-3.8,2.3c-1,0-1.5-0.9-1.6-1.9c-0.1-1.9,2-3.8,3.9-3.8c0.5,0,1,0.1,1,0.7
			c0,0.7-0.7,1.8-3.4,2.6l0,0.3c0,0.5,0.4,0.7,0.9,0.7c1,0,2.2-1,3-1.6L104.2,45.7z M102.5,43.4c0-0.1-0.1-0.2-0.2-0.2
			c-0.7,0.2-1.5,0.9-1.9,1.8C101.6,44.6,102.5,43.6,102.5,43.4z"/>
		<path class="st3" d="M109,45.3l0.1,0.5c-0.9,0.9-2.4,2.2-3.6,2.1c-1,0-2-0.6-2.3-1.6c-0.1,0.1-0.2,0.2-0.3,0.2
			c-0.1,0-0.2-0.1-0.2-0.3c0-0.2,0.2-0.4,0.3-0.5l3.1-2.8c0-0.5,0.3-0.9,0.8-0.9c0.4,0,0.5,0.1,0.6,0.5c0.1,0.5,0.3,1,0.3,1.7
			c0,1.2-0.9,2-1.9,2.6c0.9,0.2,1.5-0.3,2.2-0.8L109,45.3z M104.2,45.6c0.5,0,0.8,0.5,1.1,0.8c0.9-0.5,1.1-0.8,1.1-1.6
			c0-0.3-0.1-0.7-0.2-1.2L104.2,45.6z"/>
	</g>
	<g>
		<linearGradient id="SVGID_8_" gradientUnits="userSpaceOnUse" x1="68.25" y1="42.6859" x2="78.1237" y2="42.6859">
			<stop  offset="0" style="stop-color:#253B79"/>
			<stop  offset="4.716355e-02" style="stop-color:#243E7D"/>
			<stop  offset="0.2745" style="stop-color:#234E8B"/>
			<stop  offset="0.507" style="stop-color:#225996"/>
			<stop  offset="0.7457" style="stop-color:#22609D"/>
			<stop  offset="1" style="stop-color:#2262A0"/>
		</linearGradient>
		<path class="st10" d="M68.9,41.2c-0.3,0-0.6,0-0.6-0.4c0-0.2,0.1-0.6,0.1-0.8c0.2-0.9,0.1-1.2,1.1-1.6c1.6-0.7,3.6-0.9,5.3-0.9
			c0.7,0,1.5,0,2.1,0.2c0.9,0.2,0.8,0.6,1.2,1.6c0.1,0.3-0.3,0.9-0.5,1.2l-3.3,5.1l0,0c0.1-0.1,0.3,0,0.3,0.2c0,0.3-0.4,0.8-0.6,1
			c-0.3,0.3-0.8,1.2-1.3,1.2c-0.4,0-0.8-0.2-0.8-0.6c0-1.4,2.6-4.7,3.5-5.9l1.4-1.8c-2.4,0-4.9,0.4-7.2,1.1v0c0.2,0,1.1,0.1,1.1,0.4
			c0,0.3-0.6,0.1-1.1,0.1L68.9,41.2z"/>
		<linearGradient id="SVGID_9_" gradientUnits="userSpaceOnUse" x1="76.9196" y1="42.7288" x2="83.4396" y2="42.7288">
			<stop  offset="0" style="stop-color:#253B79"/>
			<stop  offset="4.716355e-02" style="stop-color:#243E7D"/>
			<stop  offset="0.2745" style="stop-color:#234E8B"/>
			<stop  offset="0.507" style="stop-color:#225996"/>
			<stop  offset="0.7457" style="stop-color:#22609D"/>
			<stop  offset="1" style="stop-color:#2262A0"/>
		</linearGradient>
		<path class="st11" d="M78,45.5c0.7-0.6,3.3-2.8,4.1-2.8c0.3,0,0.7,0.4,0.7,0.7c0,0.3-0.6,0.9-0.7,1.1c-0.9,1.1-0.8,1.1-0.8,1.3
			c0,0.2,0.1,0.3,0.3,0.3c0.5,0,1.5-0.8,1.9-1l0.1,0.6c-0.7,0.5-2.4,1.9-3.2,1.9c-0.4,0-0.7-0.4-0.7-0.8c0-0.9,1-2,1.5-2.6l0,0
			c-2.4,1.7-3.1,3.2-3.6,3.2c-0.5,0-0.6-1.1-0.6-1.4c0-1,0.4-1.7,0.9-2.5c1.7-2.8,4.5-5.3,5-5.3c0.2,0,0.6,0.1,0.6,0.4
			c0,1-4.5,5.7-5.4,6.6V45.5z"/>
		<linearGradient id="SVGID_10_" gradientUnits="userSpaceOnUse" x1="83.2402" y1="44.7213" x2="88.6364" y2="44.7213">
			<stop  offset="0" style="stop-color:#253B79"/>
			<stop  offset="4.716355e-02" style="stop-color:#243E7D"/>
			<stop  offset="0.2745" style="stop-color:#234E8B"/>
			<stop  offset="0.507" style="stop-color:#225996"/>
			<stop  offset="0.7457" style="stop-color:#22609D"/>
			<stop  offset="1" style="stop-color:#2262A0"/>
		</linearGradient>
		<path class="st12" d="M88.6,45.2c-0.9,1-2.4,2.3-3.8,2.3c-1,0-1.5-0.9-1.6-1.9c-0.1-1.9,2-3.8,3.9-3.8c0.5,0,1,0.1,1,0.7
			c0,0.7-0.7,1.8-3.4,2.6l0,0.3c0,0.5,0.4,0.7,0.9,0.7c1,0,2.2-1,3-1.6L88.6,45.2z M86.9,42.9c0-0.1-0.1-0.2-0.2-0.2
			c-0.7,0.2-1.5,0.9-1.9,1.8C86,44.1,86.9,43.1,86.9,42.9z"/>
		<linearGradient id="SVGID_11_" gradientUnits="userSpaceOnUse" x1="88.2801" y1="44.7498" x2="98.7295" y2="44.7498">
			<stop  offset="0" style="stop-color:#253B79"/>
			<stop  offset="4.716355e-02" style="stop-color:#243E7D"/>
			<stop  offset="0.2745" style="stop-color:#234E8B"/>
			<stop  offset="0.507" style="stop-color:#225996"/>
			<stop  offset="0.7457" style="stop-color:#22609D"/>
			<stop  offset="1" style="stop-color:#2262A0"/>
		</linearGradient>
		<path class="st13" d="M93.2,46.5c-0.3,0.3-0.8,0.9-1.3,0.9c-0.3,0-0.6-0.3-0.6-0.6c0-0.4,0.3-1.1,1.3-2.5c0,0,0.1-0.1,0.1-0.2
			c0-0.1,0-0.1-0.1-0.1c-0.1,0-0.5,0.3-0.6,0.4c-0.7,0.8-1.5,1.6-2.2,2.5c-0.2,0.2-0.4,0.4-0.6,0.4c-0.7,0-0.9-1.1-0.9-1.6
			c0-1.4,1.5-3.3,2.4-3.2c0.2,0,0.6,0,0.6,0.3c0,0.3-0.4,0.7-0.6,0.9c-0.3,0.3-0.6,0.6-0.8,0.9c-0.2,0.2-0.4,0.4-0.4,0.7
			c0,0,0,0.1,0.1,0.1c0.1,0,0.2-0.2,0.3-0.2c0.7-0.7,3.2-3.3,4.2-3.3c0.4,0,0.6,0.3,0.6,0.7c0,0.6-1,1.8-1.3,2.3l0,0l3.2-2.5
			c0.1-0.1,0.5-0.4,0.7-0.4c0.1,0,0.3,0.3,0.3,0.4c0.1,0.2,0.3,0.4,0.3,0.6c0,0.2-0.3,0.6-0.4,0.7c-1.1,1.2-1.2,1.5-1.2,1.8
			c0,0.2,0.2,0.4,0.3,0.4c0.3-0.1,0.5-0.1,2.2-1.3l0.1,0.7c-0.7,0.5-2.7,2.2-3.5,2.2c-0.4,0-0.7-0.4-0.7-0.8c0-0.7,0.7-1.7,1.1-2.3
			l0,0L93.2,46.5z"/>
		<linearGradient id="SVGID_12_" gradientUnits="userSpaceOnUse" x1="98.4298" y1="44.7213" x2="103.8261" y2="44.7213">
			<stop  offset="0" style="stop-color:#253B79"/>
			<stop  offset="4.716355e-02" style="stop-color:#243E7D"/>
			<stop  offset="0.2745" style="stop-color:#234E8B"/>
			<stop  offset="0.507" style="stop-color:#225996"/>
			<stop  offset="0.7457" style="stop-color:#22609D"/>
			<stop  offset="1" style="stop-color:#2262A0"/>
		</linearGradient>
		<path class="st14" d="M103.8,45.2c-0.9,1-2.4,2.3-3.8,2.3c-1,0-1.5-0.9-1.6-1.9c-0.1-1.9,2-3.8,3.9-3.8c0.5,0,1,0.1,1,0.7
			c0,0.7-0.7,1.8-3.4,2.6l0,0.3c0,0.5,0.4,0.7,0.9,0.7c1,0,2.2-1,3-1.6L103.8,45.2z M102.1,42.9c0-0.1-0.1-0.2-0.2-0.2
			c-0.7,0.2-1.5,0.9-1.9,1.8C101.2,44.1,102.1,43.1,102.1,42.9z"/>
		<linearGradient id="SVGID_13_" gradientUnits="userSpaceOnUse" x1="102.3459" y1="44.5234" x2="108.7233" y2="44.5234">
			<stop  offset="0" style="stop-color:#253B79"/>
			<stop  offset="4.716355e-02" style="stop-color:#243E7D"/>
			<stop  offset="0.2745" style="stop-color:#234E8B"/>
			<stop  offset="0.507" style="stop-color:#225996"/>
			<stop  offset="0.7457" style="stop-color:#22609D"/>
			<stop  offset="1" style="stop-color:#2262A0"/>
		</linearGradient>
		<path class="st15" d="M108.6,44.9l0.1,0.5c-0.9,0.9-2.4,2.2-3.6,2.1c-1,0-2-0.6-2.3-1.6c-0.1,0.1-0.2,0.2-0.3,0.2
			c-0.1,0-0.2-0.1-0.2-0.3c0-0.2,0.2-0.4,0.3-0.5l3.1-2.8c0-0.5,0.3-0.9,0.8-0.9c0.4,0,0.5,0.1,0.6,0.5c0.1,0.5,0.3,1,0.3,1.7
			c0,1.2-0.9,2-1.9,2.6c0.9,0.2,1.5-0.3,2.2-0.8L108.6,44.9z M103.7,45.2c0.5,0,0.8,0.5,1.1,0.8c0.9-0.5,1.1-0.8,1.1-1.6
			c0-0.3-0.1-0.7-0.2-1.2L103.7,45.2z"/>
	</g>
</g>
</svg>
